{"title":"Frances Tuesday 2004 Miniserie DVD9rip English Klam","uid":8332388,"size":1466843533,"categoryP":"video","categoryS":"movies","magnet":"?xt=urn:btih:e5c8ace8900e9e67c7728d39402ad5b4c66e465b&amp;dn=Frances+Tuesday+2004+Miniserie+DVD9rip+English+Klam&amp;tr=udp%3A%2F%2Ftracker.openbittorrent.com%3A80&amp;tr=udp%3A%2F%2Fopen.demonii.com%3A1337&amp;tr=udp%3A%2F%2Ftracker.coppersurfer.tk%3A6969&amp;tr=udp%3A%2F%2Fexodus.desync.com%3A6969","seeders":0,"leechers":2,"uploader":"Klambake","files":-1,"time":1364913231,"description":"With: Tamzin Outhwaite, Douglas Henshall and Lennie James\n\nFrances West heeft een gelukkig en luxe leven. Ze is accountant voor het bedrijf van haar verloofde Lucas Pilgrim. Haar leven stort in als de politie haar vertelt dat Lucas een crimineel en moordenaar is. Ondanks haar liefde en loyaliteit ten opzichte van Lucas, raakt ze er steeds meer van overtuigd dat ze haar leven niet zeker is bij Lucas.\n\nA Gangsters Moll Changes her identity to go on the run after becoming informant on her boyfriend, who is just about to be released from prison. \n &lt;a href=&quot;\nhttp://www.imdb.com/title/tt0419327&quot; rel=&quot;nofollow&quot; target=&quot;_NEW&quot;&gt;\nhttp://www.imdb.com/title/tt0419327&lt;/a&gt;\t\n\n------------------------ Dutch Friends ------------------------\n---------------------------------------------------------------\n- Bezoek ook eens mijn vrienden op: &lt;a href=&quot; http://www.Film-Test.nl&quot; rel=&quot;nofollow&quot; target=&quot;_NEW&quot;&gt; http://www.Film-Test.nl&lt;/a&gt; --\n----- voor mijn Nederlandse Sync. ondertitels ---- en meer ----\n------- http://www.Film-Test.nl ---- Over Films en meer -------\n---------------------------------------------------------------\n\nGeneral:\n\nComplete name                    : Frances TuesdayPart01.avi\nFormat                           : AVI\nFormat/Info                      : Audio Video Interleave\nFile size                        : 699 MiB\nDuration                         : 1h 10mn\nOverall bit rate                 : 1 381 Kbps\n\nVideo:\n\nFormat                           : MPEG-4 Visual\nFormat profile                   : Simple@L3\nFormat settings, BVOP            : No\nFormat settings, QPel            : No\nFormat settings, GMC             : No warppoints\nFormat settings, Matrix          : Default (H.263)\nCodec ID                         : XVID\nCodec ID/Hint                    : XviD\nDuration                         : 1h 10mn\nBit rate                         : 1 146 Kbps\nWidth                            : 704 pixels\nHeight                           : 396 pixels\nDisplay aspect ratio             : 16:9\nFrame rate                       : 25.000 fps\nColor space                      : YUV\nChroma subsampling               : 4:2:0\nBit depth                        : 8 bits\nScan type                        : Progressive\nCompression mode                 : Lossy\nBits/(Pixel*Frame)               : 0.164\nStream size                      : 580 MiB (83%)\nWriting library                  : XviD 1.1.2 (UTC 2006-11-01)\n\nAudio:\n\nFormat                           : AC-3\nFormat/Info                      : Audio Coding 3\nMode extension                   : CM (complete main)\nCodec ID                         : 2000\nDuration                         : 1h 10mn\nBit rate mode                    : Constant\nBit rate                         : 224 Kbps\nChannel(s)                       : 2 channels\nChannel positions                : Front: L R\nSampling rate                    : 48.0 KHz\nBit depth                        : 16 bits\nCompression mode                 : Lossy\nStream size                      : 113 MiB (16%)\nAlignment                        : Aligned on interleaves\nInterleave, duration             : 32 ms (0.80 video frame)\nInterleave, preload duration     : 192 ms","torrent":{"xt":"urn:btih:e5c8ace8900e9e67c7728d39402ad5b4c66e465b","amp;dn":"Frances+Tuesday+2004+Miniserie+DVD9rip+English+Klam","amp;tr":["udp%3A%2F%2Ftracker.openbittorrent.com%3A80","udp%3A%2F%2Fopen.demonii.com%3A1337","udp%3A%2F%2Ftracker.coppersurfer.tk%3A6969","udp%3A%2F%2Fexodus.desync.com%3A6969"],"infoHash":"e5c8ace8900e9e67c7728d39402ad5b4c66e465b","infoHashBuffer":{"type":"Buffer","data":[229,200,172,232,144,14,158,103,199,114,141,57,64,42,213,180,198,110,70,91]},"announce":[],"urlList":[]}}